<?xml version="1.0" encoding="UTF-8"?><svg id="Layer_2" xmlns="http://www.w3.org/2000/svg" viewBox="0 0 1536.9 283.55"><g id="Layer_1-2"><g><path d="M1462.13,182.91c33.83-16.87,53.14-50.3,53.14-84.54,0-48.76-39.15-92.96-103.66-92.96h-116.1V278.11h63.32v-83.86h36.86l65.87,83.86h75.34l-74.77-95.2Zm-50.52-39.48h-52.79V56.23h52.79c18.68,0,40.57,19.41,40.57,43.6s-21.89,43.6-40.57,43.6Z"/><path d="M518.46,98.37c0-48.76-39.15-92.96-103.66-92.96h-116.1V278.11h63.32v-83.86h36.86l65.87,83.86h75.34l-74.77-95.2c33.83-16.87,53.14-50.3,53.14-84.54Zm-103.66,45.06h-52.79V56.23h52.79c18.68,0,40.57,19.41,40.57,43.6s-21.89,43.6-40.57,43.6Z"/><path d="M669.4,64.07c37.56,0,68.9,26.66,76.13,62.08h64.79C802.54,55.21,742.42,0,669.4,0c-78.3,0-141.77,63.47-141.77,141.77s63.47,141.77,141.77,141.77c64.2,0,118.42-42.67,135.87-101.2h-69.6c-13.66,22.27-38.23,37.13-66.27,37.13-42.91,0-77.7-34.79-77.7-77.7s34.79-77.7,77.7-77.7Z"/><polygon points="994.97 126.16 892.99 126.16 892.99 5.41 829.68 5.41 829.68 278.11 892.99 278.11 892.99 176.98 994.97 176.98 994.97 278.11 1058.28 278.11 1058.28 5.41 994.97 5.41 994.97 126.16"/><polygon points="1086.53 5.41 1086.53 278.11 1272.71 278.11 1272.71 227.29 1149.84 227.29 1149.84 176.98 1252.37 176.98 1252.37 126.16 1149.84 126.16 1149.84 56.23 1272.71 56.23 1272.71 5.41 1086.53 5.41"/><path d="M282.39,168.66l-26.29-25.41h-25.81L177.05,5.41H104.9L0,278.11H66.83l28.04-76.81-44.55-7.22h205.78l26.29-25.41Zm-166.34-25.41l25.14-68.89,25.14,68.89h-50.29Z"/><polygon points="189.33 206.25 215.56 278.11 282.39 278.11 256.1 210.06 189.33 206.25"/></g></g></svg>